<svg xmlns="http://www.w3.org/2000/svg" xmlns:xl="http://www.w3.org/1999/xlink" viewBox="3 -2 287 274"><defs><filter id="b" filterUnits="userSpaceOnUse"><feGaussianBlur in="SourceAlpha" result="blur" stdDeviation="1.308"/><feOffset in="blur" result="offset" dy="2"/><feFlood flood-color="#000" flood-opacity=".5" result="flood"/><feComposite in="flood" in2="offset" operator="in"/></filter><filter id="f" filterUnits="userSpaceOnUse"><feGaussianBlur in="SourceAlpha" result="blur" stdDeviation="1.303"/><feOffset in="blur" result="offset" dy="2"/><feFlood flood-color="#000" flood-opacity=".2" result="flood"/><feComposite in="flood" in2="offset" operator="in" result="color"/><feMerge><feMergeNode in="color"/><feMergeNode in="SourceGraphic"/></feMerge></filter></defs><g fill="none"><xl:use xl:href="#a" filter="url(#b)"/><xl:use xl:href="#c" filter="url(#b)"/><xl:use xl:href="#d" filter="url(#b)"/><xl:use xl:href="#e" filter="url(#b)"/><g filter="url(#f)"><path d="M189 9h80.182a9 9 0 0 1 9 9v80.182a9 9 0 0 1-9 9H189a9 9 0 0 1-9-9V18a9 9 0 0 1 9-9z" stroke="#000" stroke-linecap="round" stroke-linejoin="round"/><text transform="translate(185 14)" fill="#000"><tspan font-size="12" font-weight="500" x="23.407" y="11" textLength="41.367">Agent 2</tspan></text></g><g id="a"><path fill="#fff" d="M194.727 51.545H261V81h-66.273z"/><path d="M194.727 51.545H261V81h-66.273zm6.628 0V81m53.018 0V51.545" stroke="#000" stroke-linecap="round" stroke-linejoin="round"/><text transform="translate(206.355 54.273)" fill="#000"><tspan font-size="10" font-weight="500" x="10.76" y="10" textLength="6.67">V</tspan><tspan font-size="10" font-weight="500" x="17.254" y="10" textLength="17.783">iew </tspan><tspan font-size="10" font-weight="500" x="6.783" y="22" textLength="29.453">(foor2)</tspan></text></g><g filter="url(#f)"><path d="M24 9h80.182a9 9 0 0 1 9 9v80.182a9 9 0 0 1-9 9H24a9 9 0 0 1-9-9V18a9 9 0 0 1 9-9z" stroke="#000" stroke-linecap="round" stroke-linejoin="round"/><text transform="translate(20 14)" fill="#000"><tspan font-size="12" font-weight="500" x="23.407" y="11" textLength="41.367">Agent 1</tspan></text></g><g id="c"><path fill="#fff" d="M32.182 51.545h66.273V81H32.182z"/><path d="M32.182 51.545h66.273V81H32.182zm6.627 0V81m53.018 0V51.545" stroke="#000" stroke-linecap="round" stroke-linejoin="round"/><text transform="translate(43.81 54.273)" fill="#000"><tspan font-size="10" font-weight="500" x="10.76" y="10" textLength="6.67">V</tspan><tspan font-size="10" font-weight="500" x="17.254" y="10" textLength="17.783">iew </tspan><tspan font-size="10" font-weight="500" x="11.228" y="22" textLength="20.562">(foo)</tspan></text></g><g id="d"><path d="M121.34 254.864v-42.546c0-2.935 11.914-5.318 26.592-5.318 14.678 0 26.59 2.383 26.59 5.318v42.546c0 2.935-11.912 5.318-26.59 5.318-14.678 0-26.591-2.383-26.591-5.318" fill="#fff"/><path d="M121.34 254.864v-42.546c0-2.935 11.914-5.318 26.592-5.318 14.678 0 26.59 2.383 26.59 5.318v42.546c0 2.935-11.912 5.318-26.59 5.318-14.678 0-26.591-2.383-26.591-5.318m0-42.546c0 2.936 11.913 5.318 26.59 5.318 14.679 0 26.592-2.382 26.592-5.318" stroke="#000" stroke-linecap="round" stroke-linejoin="round"/><text transform="translate(126.34 230.25)" fill="#000"><tspan font-size="10" font-weight="500" x="4.079" y="10" textLength="35.024">Storage</tspan></text></g><g id="e"><path d="M147.932 132.545L196 151.773 147.932 171l-48.068-19.227z" fill="#fff"/><path d="M147.932 132.545L196 151.773 147.932 171l-48.068-19.227z" stroke="#000" stroke-linecap="round" stroke-linejoin="round"/><text transform="translate(117.842 145.388)" fill="#000"><tspan font-size="10" font-weight="500" x="7.702" y="10" textLength="46.699">Beliefbase</tspan></text></g><path stroke="#000" stroke-linecap="round" stroke-linejoin="round" d="M147.932 171v36M98.455 66.273h49.909l-.432 59.272v7"/><path d="M194.727 66.273h-46.363l-.432 59.272v7" stroke="#000" stroke-linecap="round" stroke-linejoin="round"/></g></svg>