<svg xmlns="http://www.w3.org/2000/svg" viewBox="0 0 347.55 237.769"><defs><clipPath id="a"><path d="M.766.4h182v37h-182V.4z"/></clipPath><clipPath id="b"><path d="M.334.756h27v27h-27v-27z"/></clipPath></defs><g transform="translate(-146.525 -200.153)"><ellipse transform="matrix(.94969 .3132 -.3789 .92544 0 0)" ry="88.144" rx="166.074" cy="203.723" cx="418.547" fill="#ececec" stroke="#000" stroke-width="1.351"/><ellipse cx="444.461" cy="193.733" rx="100.094" ry="57.88" transform="rotate(20.26) skewX(.168)" fill="#b3b3b3" stroke="#000" stroke-width=".85" stroke-dasharray="2.549 2.549"/><g clip-path="url(#a)" transform="matrix(.63729 0 0 -.64018 203.947 263.954)"><path d="M8.462 34.324c0 .053 0 .399-.48.399-.825 0-3.434-.293-4.393-.346-.266-.053-.666-.08-.666-.72 0-.452.32-.452.852-.452 1.731 0 1.811-.24 1.811-.586 0-.266-.32-1.49-.506-2.236L2.124 18.667c-.426-1.784-.559-2.37-.559-3.622 0-3.408 1.89-5.645 4.554-5.645 4.233 0 8.653 5.352 8.653 10.518 0 3.275-1.917 5.752-4.766 5.752-1.677 0-3.142-1.039-4.207-2.157l2.663 10.81zM5.08 20.744c.213.798.213.878.533 1.278 1.757 2.316 3.381 2.875 4.313 2.875 1.278 0 2.264-1.091 2.264-3.381 0-2.13-1.199-6.258-1.838-7.616-1.171-2.423-2.849-3.7-4.233-3.7-1.225 0-2.424.958-2.424 3.62 0 .693 0 1.358.586 3.622l.8 3.302m16.907-2.636c1.039 0 3.702.053 5.486.825 2.53 1.065 2.69 3.195 2.69 3.701 0 1.571-1.359 3.036-3.835 3.036-3.994 0-9.4-3.489-9.4-9.773 0-3.648 2.104-6.497 5.619-6.497 5.139 0 8.174 3.808 8.174 4.234 0 .213-.24.48-.452.48-.16 0-.24-.08-.453-.373-2.85-3.542-6.763-3.542-7.19-3.542-2.795 0-3.115 3.01-3.115 4.154 0 .453.027 1.544.56 3.755h1.916zm-1.704.772c1.412 5.458 5.113 6.017 6.045 6.017 1.677 0 2.663-1.065 2.663-2.263 0-3.754-5.752-3.754-7.217-3.754h-1.49M41.24 34.324c0 .053 0 .399-.48.399-.825 0-3.434-.293-4.366-.346-.293-.053-.692-.08-.692-.772 0-.4.346-.4.905-.4 1.704 0 1.757-.32 1.757-.586l-.106-.719-4.527-17.973c-.106-.4-.186-.64-.186-1.225 0-2.05 1.57-3.302 3.275-3.302 1.172 0 2.077.72 2.69 2.024.638 1.358 1.064 3.435 1.064 3.515 0 .346-.32.346-.426.346-.346 0-.399-.133-.505-.64-.613-2.342-1.279-4.446-2.716-4.446-1.092 0-1.092 1.145-1.092 1.651 0 .852.053 1.038.213 1.73l5.192 20.744m12.329-2.077c0 .719-.506 1.304-1.332 1.304-.958 0-1.943-.932-1.943-1.917 0-.692.505-1.304 1.357-1.304.826 0 1.918.852 1.918 1.917zm-2.743-13.5c.453 1.038.453 1.118.799 2.076.293.72.48 1.225.48 1.918 0 1.597-1.172 2.929-2.956 2.929-3.382 0-4.74-5.193-4.74-5.539 0-.346.346-.346.426-.346.373 0 .4.08.586.64.958 3.38 2.396 4.472 3.621 4.472.293 0 .905 0 .905-1.171 0-.746-.266-1.491-.4-1.864-.292-.932-1.916-5.086-2.475-6.63-.373-.932-.826-2.13-.826-2.876 0-1.704 1.225-2.956 2.93-2.956 3.38 0 4.712 5.22 4.712 5.539 0 .346-.32.346-.426.346-.373 0-.373-.107-.532-.64-.666-2.262-1.838-4.446-3.675-4.446-.612 0-.852.346-.852 1.172 0 .905.213 1.411 1.038 3.594l1.385 3.782m11.556-.639c1.039 0 3.702.053 5.486.825 2.529 1.065 2.716 3.195 2.716 3.701 0 1.571-1.385 3.036-3.861 3.036-3.995 0-9.4-3.489-9.4-9.773 0-3.648 2.104-6.497 5.645-6.497 5.113 0 8.148 3.808 8.148 4.234 0 .213-.213.48-.426.48-.186 0-.266-.08-.48-.373-2.848-3.542-6.763-3.542-7.189-3.542-2.795 0-3.115 3.01-3.115 4.154 0 .453.027 1.544.586 3.755h1.89zm-1.677.772c1.384 5.458 5.086 6.017 6.018 6.017 1.704 0 2.662-1.065 2.662-2.263 0-3.754-5.751-3.754-7.216-3.754h-1.464m24.843 5.299h3.089c.719 0 1.065 0 1.065.718 0 .373-.346.373-.958.373h-2.982l.745 4.1c.16.746.666 3.303.878 3.729.32.692.933 1.225 1.678 1.225.16 0 1.092 0 1.757-.64-1.57-.133-1.943-1.41-1.943-1.943 0-.826.665-1.252 1.331-1.252.932 0 1.97.8 1.97 2.157 0 1.651-1.65 2.476-3.115 2.476-1.225 0-3.488-.639-4.553-4.207-.213-.745-.32-1.118-1.198-5.645h-2.477c-.666 0-1.065 0-1.065-.665 0-.426.32-.426 1.012-.426h2.37L80.436 9.986c-.639-3.488-1.252-6.763-3.115-6.763-.134 0-1.04 0-1.731.639 1.65.106 1.996 1.411 1.996 1.944 0 .825-.665 1.278-1.33 1.278-.933 0-1.997-.8-1.997-2.157 0-1.624 1.597-2.476 3.062-2.476 1.97 0 3.408 2.103 4.047 3.461 1.171 2.263 1.997 6.63 2.023 6.87l2.157 11.397m20.104-23.007c0 .107 0 .187-.612.8-4.474 4.526-5.645 11.316-5.645 16.801 0 6.258 1.384 12.515 5.804 16.988.453.427.453.506.453.613 0 .266-.133.373-.346.373-.373 0-3.595-2.45-5.725-7.003-1.837-3.968-2.263-7.935-2.263-10.97 0-2.797.4-7.137 2.37-11.211 2.156-4.394 5.245-6.737 5.618-6.737.213 0 .346.107.346.346m18 33.684c-.266.48-.346.666-.932.666-.612 0-.692-.187-.958-.666L109.646 10.52c-.186-.32-.186-.4-.186-.426 0-.293.213-.293.772-.293h24.95c.56 0 .772 0 .772.293 0 .026 0 .106-.186.426l-12.116 24.337zm-2.103-2.929l9.665-19.385h-19.358l9.693 19.385m23.405-22.101c0 2.37-.905 3.781-2.29 3.781-1.198 0-1.917-.905-1.917-1.917 0-.958.719-1.89 1.917-1.89.426 0 .905.133 1.252.479.106.053.133.106.186.106.027 0 .054-.053.054-.559 0-2.636-1.252-4.793-2.424-5.99-.4-.4-.4-.454-.4-.56 0-.266.187-.4.347-.4.4 0 3.275 2.77 3.275 6.95m9.799-6.23c-.107-.427-.107-.506-.107-.586 0-.533.4-.959 1.013-.959.745 0 1.17.64 1.251.746.186.32 1.332 5.139 2.29 9.026.719-1.438 1.864-2.423 3.568-2.423 4.18 0 8.84 5.06 8.84 10.412 0 3.807-2.396 5.858-5.006 5.858-3.488 0-7.243-3.595-8.334-7.962l-3.515-14.112zm7.962 6.603c-2.503 0-3.09 2.876-3.09 3.195 0 .134.187.853.294 1.332 1.012 4.02 1.358 5.299 2.157 6.737 1.544 2.636 3.355 3.434 4.446 3.434 1.332 0 2.477-1.065 2.477-3.541 0-1.97-1.04-5.991-1.997-7.749-1.199-2.263-2.903-3.408-4.287-3.408m19.837 8.574c0 2.796-.4 7.163-2.37 11.21-2.157 4.42-5.245 6.764-5.618 6.764-.214 0-.346-.16-.346-.373 0-.107 0-.186.666-.826 3.54-3.541 5.591-9.266 5.591-16.775 0-6.124-1.331-12.461-5.805-16.988-.452-.426-.452-.506-.452-.613 0-.213.132-.346.346-.346.373 0 3.594 2.45 5.724 7.003 1.838 3.941 2.264 7.935 2.264 10.944"/></g><g clip-path="url(#b)" transform="matrix(1.05975 0 0 -1.06455 335.893 344.466)"><path d="M14.9 26.638c-.24.453-.32.639-.932.639-.613 0-.666-.186-.932-.64L.894 2.275c-.16-.32-.16-.4-.16-.426 0-.293.213-.293.772-.293h24.923c.586 0 .8 0 .8.293 0 .026 0 .106-.187.426L14.9 26.638zm-2.077-2.956l9.665-19.385H3.13l9.693 19.385"/></g><path d="M397.584 219.752a54.162 54.162 0 0 1 2.274 3.553c-13.355-1.836-22.738 2.172-30.632 6.72-13.872 7.804-24.834 17.804-36.131 27.98l.027.024c11.097-10.923 21.9-21.69 35.996-30.291 7.259-4.592 16.018-8.64 28.466-7.986z" fill="#00f" fill-rule="evenodd"/><text style="line-height:125%;-inkscape-font-specification:sans-serif" x="410.553" y="228.624" transform="scale(.99774 1.00226)" font-weight="400" font-size="27.677" letter-spacing="0" word-spacing="0"><tspan x="410.553" y="228.624"><tspan style="-inkscape-font-specification:sans-serif" font-size="21.243">implicit</tspan></tspan></text><text style="line-height:125%;-inkscape-font-specification:sans-serif" x="170.122" y="419.732" transform="scale(.99774 1.00226)" font-weight="400" font-size="21.243" letter-spacing="0" word-spacing="0"><tspan x="170.122" y="419.732">explicit</tspan></text><path d="M334.264 356.954c.398.31-.744 2.029-.946 2.88-3.91 9.527-8.287 18.908-15.849 26.736-14.533 14.85-37.897 24.554-60.772 30.76a202.161 202.161 0 0 1-2.838-5.399c23.55-4.984 48.114-13.546 63.28-28.008 7.92-7.673 12.575-17.268 17.125-26.969z" fill="#00f"/></g></svg>