<?xml version="1.0" encoding="UTF-8" standalone="no"?>
<svg
   xmlns:dc="http://purl.org/dc/elements/1.1/"
   xmlns:cc="http://creativecommons.org/ns#"
   xmlns:rdf="http://www.w3.org/1999/02/22-rdf-syntax-ns#"
   xmlns:svg="http://www.w3.org/2000/svg"
   xmlns="http://www.w3.org/2000/svg"
   xmlns:sodipodi="http://sodipodi.sourceforge.net/DTD/sodipodi-0.dtd"
   xmlns:inkscape="http://www.inkscape.org/namespaces/inkscape"
   viewBox="0 0 32 32"
   version="1.1"
   id="svg3979"
   sodipodi:docname="docker.svg"
   inkscape:version="0.92.2 5c3e80d, 2017-08-06">
  <sodipodi:namedview
     pagecolor="#ffffff"
     bordercolor="#666666"
     borderopacity="1"
     objecttolerance="10"
     gridtolerance="10"
     guidetolerance="10"
     inkscape:pageopacity="0"
     inkscape:pageshadow="2"
     inkscape:window-width="1937"
     inkscape:window-height="1154"
     id="namedview9"
     showgrid="false"
     inkscape:zoom="7.375"
     inkscape:cx="-7.7288136"
     inkscape:cy="26.847458"
     inkscape:window-x="0"
     inkscape:window-y="0"
     inkscape:window-maximized="0"
     inkscape:current-layer="svg3979" />
  <metadata
     id="metadata3985">
    <rdf:RDF>
      <cc:Work
         rdf:about="">
        <dc:format>image/svg+xml</dc:format>
        <dc:type
           rdf:resource="http://purl.org/dc/dcmitype/StillImage" />
        <dc:title />
      </cc:Work>
    </rdf:RDF>
  </metadata>
  <defs
     id="defs3983" />
  <path
     d="M16 31.625C7.385 31.625.375 24.615.375 16S7.385.375 16 .375 31.625 7.385 31.625 16 24.615 31.625 16 31.625z"
     fill="#FFF"
     id="path3973" />
  <path
     d="M16 .75C24.409.75 31.25 7.591 31.25 16S24.409 31.25 16 31.25.75 24.409.75 16 7.591.75 16 .75M16 0C7.163 0 0 7.163 0 16c0 8.836 7.163 16 16 16s16-7.164 16-16c0-8.837-7.163-16-16-16z"
     fill="#E5E5E5"
     id="path3975" />
  <g
     style="fill:#333333;fill-opacity:1"
     transform="translate(5.0182208,3.9321722)"
     id="Docker">
    <path
       d="m 23.77,11.08 a 5.12,5.12 0 0 0 -2.41,-0.77 2.7,2.7 0 0 0 -0.44,0 4.24,4.24 0 0 0 -1.64,-2.26 0.5,0.5 0 0 0 -0.64,0.07 4.06,4.06 0 0 0 -0.72,3.28 0.52,0.52 0 0 1 -0.13,0.41 0.45,0.45 0 0 1 -0.34,0.15 H 17 V 9.5 A 0.5,0.5 0 0 0 16.5,9 H 14 V 3.5 A 0.5,0.5 0 0 0 13.5,3 h -3 A 0.5,0.5 0 0 0 10,3.5 V 6 H 4.5 A 0.5,0.5 0 0 0 4,6.5 V 9 H 1.5 A 0.5,0.5 0 0 0 1,9.5 V 12 H 0.5 A 0.5,0.5 0 0 0 0,12.5 C 0,20.17 5.59,21 8,21 a 14.29,14.29 0 0 0 12.38,-7.08 5.13,5.13 0 0 0 3.55,-2.17 0.5,0.5 0 0 0 -0.16,-0.67 z M 16,12 h -2 v -2 h 2 z M 5,12 v -2 h 2 v 2 z m 3,0 v -2 h 2 v 2 z M 13,7 V 9 H 11 V 7 Z m -2,5 v -2 h 2 v 2 z m 0,-8 h 2 V 6 H 11 Z M 10,9 H 8 V 7 h 2 z M 5,7 H 7 V 9 H 5 Z m -3,3 h 2 v 2 H 2 Z m 3,7 a 1,1 0 1 1 1,-1 1,1 0 0 1 -1,1 z"
       style="fill:#333333;fill-opacity:1"
       id="path4755" />
  </g>
</svg>
