<svg xmlns="http://www.w3.org/2000/svg" viewBox="355 34 727 769"><g fill="none"><path d="M928.692 214.308c117.744 117.743 117.744 308.641 0 426.384-117.743 117.744-308.641 117.744-426.384 0-117.744-117.743-117.744-308.641 0-426.384 117.743-117.744 308.641-117.744 426.384 0" fill="#fff"/><path d="M928.692 214.308c117.744 117.743 117.744 308.641 0 426.384-117.743 117.744-308.641 117.744-426.384 0-117.744-117.743-117.744-308.641 0-426.384 117.743-117.744 308.641-117.744 426.384 0" stroke="#000" stroke-linecap="round" stroke-linejoin="round"/><path d="M553.433 640.09l-46.669 46.668-46.669-46.669 46.67-46.669z" fill="#fff"/><path d="M553.433 640.09l-46.669 46.668-46.669-46.669 46.67-46.669z" stroke="#000" stroke-linecap="round" stroke-linejoin="round"/><text transform="rotate(45 -494.14 902.576)" fill="#000"><tspan font-size="16" font-weight="500" x="19.104" y="15" textLength="17.792">10</tspan></text><path d="M978.405 214.41l-46.67 46.67-46.668-46.67 46.669-46.668z" fill="#fff"/><path d="M978.405 214.41l-46.67 46.67-46.668-46.67 46.669-46.668z" stroke="#000" stroke-linecap="round" stroke-linejoin="round"/><text transform="rotate(-45 727.55 -979.088)" fill="#000"><tspan font-size="16" font-weight="500" x="23.552" y="15" textLength="8.896">2</tspan></text><path fill="#fff" d="M686.5 697h66v66h-66z"/><path stroke="#000" stroke-linecap="round" stroke-linejoin="round" d="M686.5 697h66v66h-66z"/><text transform="translate(691.5 720.776)" fill="#000"><tspan font-size="16" font-weight="500" x="23.552" y="15" textLength="8.896">8</tspan></text><path fill="#fff" d="M686 95.5h66v66h-66z"/><path stroke="#000" stroke-linecap="round" stroke-linejoin="round" d="M686 95.5h66v66h-66z"/><text transform="rotate(180 373.5 68.862)" fill="#000"><tspan font-size="16" font-weight="500" x="23.552" y="15" textLength="8.896">0</tspan></text><path d="M932.09 595.067l46.668 46.669-46.669 46.669-46.669-46.67z" fill="#fff"/><path d="M932.09 595.067l46.668 46.669-46.669 46.669-46.669-46.67z" stroke="#000" stroke-linecap="round" stroke-linejoin="round"/><text transform="rotate(-45 1243.554 -765.852)" fill="#000"><tspan font-size="16" font-weight="500" x="23.552" y="15" textLength="8.896">6</tspan></text><path d="M506.41 170.095l46.67 46.67-46.67 46.668-46.668-46.669z" fill="#fff"/><path d="M506.41 170.095l46.67 46.67-46.67 46.668-46.668-46.669z" stroke="#000" stroke-linecap="round" stroke-linejoin="round"/><text transform="rotate(-45 517.729 -464.499)" fill="#000"><tspan font-size="16" font-weight="500" x="19.104" y="15" textLength="17.792">14</tspan></text><path fill="#fff" d="M987 392.5h66v66h-66z"/><path stroke="#000" stroke-linecap="round" stroke-linejoin="round" d="M987 392.5h66v66h-66z"/><text transform="translate(992 416.276)" fill="#000"><tspan font-size="16" font-weight="500" x="23.552" y="15" textLength="8.896">4</tspan></text><path fill="#fff" d="M385.5 393h66v66h-66z"/><path stroke="#000" stroke-linecap="round" stroke-linejoin="round" d="M385.5 393h66v66h-66z"/><text transform="translate(390.5 416.776)" fill="#000"><tspan font-size="16" font-weight="500" x="19.104" y="15" textLength="17.792">12</tspan></text><path d="M979.343 497.495l60.976 25.257-25.257 60.976-60.976-25.257z" fill="#fff"/><path d="M979.343 497.495l60.976 25.257-25.257 60.976-60.976-25.257z" stroke="#000" stroke-linecap="round" stroke-linejoin="round"/><text transform="rotate(22.5 -823.13 2711.172)" fill="#000"><tspan font-size="16" font-weight="500" x="23.552" y="15" textLength="8.896">5</tspan></text><path d="M423.438 267.772l60.976 25.257-25.257 60.976-60.976-25.257z" fill="#fff"/><path d="M423.438 267.772l60.976 25.257-25.257 60.976-60.976-25.257z" stroke="#000" stroke-linecap="round" stroke-linejoin="round"/><text transform="rotate(22.5 -523.637 1198.95)" fill="#000"><tspan font-size="16" font-weight="500" x="19.104" y="15" textLength="17.792">13</tspan></text><path d="M852.433 660.395l25.257 60.976-60.976 25.257-25.258-60.976z" fill="#fff"/><path d="M852.433 660.395l25.257 60.976-60.976 25.257-25.258-60.976z" stroke="#000" stroke-linecap="round" stroke-linejoin="round"/><text transform="rotate(-22.5 2176.495 -1671.09)" fill="#000"><tspan font-size="16" font-weight="500" x="23.552" y="15" textLength="8.896">7</tspan></text><path d="M621.786 104.872l25.258 60.976-60.976 25.257-25.258-60.976z" fill="#fff"/><path d="M621.786 104.872l25.258 60.976-60.976 25.257-25.258-60.976z" stroke="#000" stroke-linecap="round" stroke-linejoin="round"/><text transform="rotate(-22.5 664.773 -1369.084)" fill="#000"><tspan font-size="16" font-weight="500" x="19.104" y="15" textLength="17.792">15</tspan></text><path d="M647.505 685.843l-25.257 60.976-60.976-25.257 25.257-60.976z" fill="#fff"/><path d="M647.505 685.843l-25.257 60.976-60.976-25.257 25.257-60.976z" stroke="#000" stroke-linecap="round" stroke-linejoin="round"/><text transform="rotate(22.5 -1429.495 1805.315)" fill="#000"><tspan font-size="16" font-weight="500" x="23.552" y="15" textLength="8.896">9</tspan></text><path d="M877.228 129.938l-25.257 60.976-60.976-25.257 25.257-60.976z" fill="#fff"/><path d="M877.228 129.938l-25.257 60.976-60.976-25.257 25.257-60.976z" stroke="#000" stroke-linecap="round" stroke-linejoin="round"/><text transform="rotate(22.5 82.727 2104.808)" fill="#000"><tspan font-size="16" font-weight="500" x="23.552" y="15" textLength="8.896">1</tspan></text><path d="M484.605 558.933L423.63 584.19l-25.257-60.976 60.976-25.258z" fill="#fff"/><path d="M484.605 558.933L423.63 584.19l-25.257-60.976 60.976-25.258z" stroke="#000" stroke-linecap="round" stroke-linejoin="round"/><text transform="rotate(-22.5 1571.637 -764.226)" fill="#000"><tspan font-size="16" font-weight="500" x="19.104" y="15" textLength="17.792">11</tspan></text><path d="M1040.128 328.286l-60.976 25.258-25.258-60.976 60.977-25.258z" fill="#fff"/><path d="M1040.128 328.286l-60.976 25.258-25.258-60.976 60.977-25.258z" stroke="#000" stroke-linecap="round" stroke-linejoin="round"/><text transform="rotate(-22.5 1269.63 -2275.948)" fill="#000"><tspan font-size="16" font-weight="500" x="23.552" y="15" textLength="8.896">3</tspan></text><circle cx="716.75" cy="50.75" r="5.75" fill="#fff"/><circle cx="716.75" cy="50.75" r="5.75" stroke="#000" stroke-linecap="round" stroke-linejoin="round"/><path stroke="#000" stroke-linecap="round" stroke-linejoin="round" d="M716.75 56.5v29M703.25 72l13.5-4.174M730.365 72l-13.615-3.809m0 17.309l-9 4.5m9-4.5l9 4.5"/><circle cx="1057.385" cy="545.75" r="5.75" fill="#fff"/><circle cx="1057.385" cy="545.75" r="5.75" stroke="#000" stroke-linecap="round" stroke-linejoin="round"/><path stroke="#000" stroke-linecap="round" stroke-linejoin="round" d="M1057.385 551.5v29m-13.5-13.5l13.5-4.174M1071 567l-13.615-3.808m0 17.308l-9 4.5m9-4.5l9 4.5"/><circle cx="1056.25" cy="280.25" r="5.75" fill="#fff"/><circle cx="1056.25" cy="280.25" r="5.75" stroke="#000" stroke-linecap="round" stroke-linejoin="round"/><path stroke="#000" stroke-linecap="round" stroke-linejoin="round" d="M1056.25 286v29m-13.5-13.5l13.5-4.174m13.615 4.174l-13.615-3.808m0 17.308l-9 4.5m9-4.5l9 4.5"/><circle cx="967.5" cy="671.75" r="5.75" fill="#fff"/><circle cx="967.5" cy="671.75" r="5.75" stroke="#000" stroke-linecap="round" stroke-linejoin="round"/><path stroke="#000" stroke-linecap="round" stroke-linejoin="round" d="M967.5 677.5v29M954 693l13.5-4.174M981.115 693l-13.615-3.808m0 17.308l-9 4.5m9-4.5l9 4.5"/><circle cx="859.385" cy="743.75" r="5.75" fill="#fff"/><circle cx="859.385" cy="743.75" r="5.75" stroke="#000" stroke-linecap="round" stroke-linejoin="round"/><path stroke="#000" stroke-linecap="round" stroke-linejoin="round" d="M859.385 749.5v29m-13.5-13.5l13.5-4.174M873 765l-13.615-3.808m0 17.308l-9 4.5m9-4.5l9 4.5"/><circle cx="589.385" cy="752.75" r="5.75" fill="#fff"/><circle cx="589.385" cy="752.75" r="5.75" stroke="#000" stroke-linecap="round" stroke-linejoin="round"/><path stroke="#000" stroke-linecap="round" stroke-linejoin="round" d="M589.385 758.5v29m-13.5-13.5l13.5-4.174M603 774l-13.615-3.808m0 17.308l-9 4.5m9-4.5l9 4.5"/><circle cx="472.5" cy="680.75" r="5.75" fill="#fff"/><circle cx="472.5" cy="680.75" r="5.75" stroke="#000" stroke-linecap="round" stroke-linejoin="round"/><path stroke="#000" stroke-linecap="round" stroke-linejoin="round" d="M472.5 686.5v29M459 702l13.5-4.174M486.115 702l-13.615-3.808m0 17.308l-9 4.5m9-4.5l9 4.5"/><circle cx="391.385" cy="545.75" r="5.75" fill="#fff"/><circle cx="391.385" cy="545.75" r="5.75" stroke="#000" stroke-linecap="round" stroke-linejoin="round"/><path stroke="#000" stroke-linecap="round" stroke-linejoin="round" d="M391.385 551.5v29m-13.5-13.5l13.5-4.174M405 567l-13.615-3.808m0 17.308l-9 4.5m9-4.5l9 4.5"/><circle cx="380" cy="275.75" r="5.75" fill="#fff"/><circle cx="380" cy="275.75" r="5.75" stroke="#000" stroke-linecap="round" stroke-linejoin="round"/><path stroke="#000" stroke-linecap="round" stroke-linejoin="round" d="M380 281.5v29M366.5 297l13.5-4.174M393.615 297L380 293.192m0 17.308l-9 4.5m9-4.5l9 4.5"/><circle cx="472.5" cy="149.75" r="5.75" fill="#fff"/><circle cx="472.5" cy="149.75" r="5.75" stroke="#000" stroke-linecap="round" stroke-linejoin="round"/><path stroke="#000" stroke-linecap="round" stroke-linejoin="round" d="M472.5 155.5v29M459 171l13.5-4.174M486.115 171l-13.615-3.809m0 17.309l-9 4.5m9-4.5l9 4.5"/></g></svg>