<svg xmlns="http://www.w3.org/2000/svg" xmlns:xl="http://www.w3.org/1999/xlink" viewBox="3 -2 413 112"><defs><filter id="b" filterUnits="userSpaceOnUse"><feGaussianBlur in="SourceAlpha" result="blur" stdDeviation="1.308"/><feOffset in="blur" result="offset" dy="2"/><feFlood flood-color="#000" flood-opacity=".5" result="flood"/><feComposite in="flood" in2="offset" operator="in"/></filter><filter id="d" filterUnits="userSpaceOnUse"><feGaussianBlur in="SourceAlpha" result="blur" stdDeviation="1.303"/><feOffset in="blur" result="offset" dy="2"/><feFlood flood-color="#000" flood-opacity=".2" result="flood"/><feComposite in="flood" in2="offset" operator="in" result="color"/><feMerge><feMergeNode in="color"/><feMergeNode in="SourceGraphic"/></feMerge></filter></defs><g fill="none"><xl:use xl:href="#a" filter="url(#b)"/><xl:use xl:href="#c" filter="url(#b)"/><g filter="url(#d)"><path d="M24 9h80.182a9 9 0 0 1 9 9v58.09a9 9 0 0 1-9 9H24a9 9 0 0 1-9-9V18a9 9 0 0 1 9-9z" stroke="#000" stroke-linecap="round" stroke-linejoin="round"/><text transform="translate(20 14)" fill="#000"><tspan font-size="12" font-weight="500" x="28.411" y="11" textLength="31.359">Agent</tspan></text></g><g id="a"><path fill="#fff" d="M32.182 39.273h66.273v29.455H32.182z"/><path d="M32.182 39.273h66.273v29.454H32.182zm6.627 0v29.454m53.018 0V39.273" stroke="#000" stroke-linecap="round" stroke-linejoin="round"/><text transform="translate(43.81 42)" fill="#000"><tspan font-size="10" font-weight="500" x="10.76" y="10" textLength="6.67">V</tspan><tspan font-size="10" font-weight="500" x="17.254" y="10" textLength="17.783">iew </tspan><tspan font-size="10" font-weight="500" x="10.117" y="22" textLength="22.783">(env)</tspan></text></g><g id="c"><path d="M220.068 30.273L269.136 54l-49.068 23.727L171 54z" fill="#fff"/><path d="M220.068 30.273L269.136 54l-49.068 23.727L171 54z" stroke="#000" stroke-linecap="round" stroke-linejoin="round"/><text transform="translate(189.248 41.525)" fill="#000"><tspan font-size="10" font-weight="500" x="4.567" y="10" textLength="54.468">On-Demand</tspan><tspan font-size="10" font-weight="500" x="8.452" y="22" textLength="46.699">Beliefbase</tspan></text></g><path stroke="#000" stroke-linecap="round" stroke-linejoin="round" d="M98.455 54H171"/><path d="M326.733 58.834C312.187 54 317.988 13.306 341.192 20.25c2.153-13.535 29.135-11.338 28.96 0 16.918-14.502 38.54 14.414 24.037 28.916 17.403 7.03-.22 44.912-14.502 38.584-1.142 10.547-26.675 14.238-28.916 0-14.457 15.206-44.604-8.174-24.038-28.916z" fill="#fff"/><path d="M326.733 58.834C312.187 54 317.988 13.306 341.192 20.25c2.153-13.535 29.135-11.338 28.96 0 16.918-14.502 38.54 14.414 24.037 28.916 17.403 7.03-.22 44.912-14.502 38.584-1.142 10.547-26.675 14.238-28.916 0-14.457 15.206-44.604-8.174-24.038-28.916z" stroke="#000" stroke-linecap="round" stroke-linejoin="round"/><text transform="translate(333.5 35.552)" fill="#000"><tspan font-size="16" font-weight="500" x="13.756" y="15" textLength="29.936">any </tspan><tspan font-size="16" font-weight="500" x=".276" y="33.448" textLength="52.448">objects</tspan></text><path stroke="#000" stroke-linecap="round" stroke-linejoin="round" d="M269.136 54h52.108"/></g></svg>