<svg xmlns="http://www.w3.org/2000/svg" xmlns:xl="http://www.w3.org/1999/xlink" viewBox="139 169 391 94"><defs><filter id="Shadow" filterUnits="userSpaceOnUse"><feGaussianBlur in="SourceAlpha" result="blur" stdDeviation="1.308"/><feOffset in="blur" result="offset" dy="2"/><feFlood flood-color="#000" flood-opacity=".5" result="flood"/><feComposite in="flood" in2="offset" operator="in"/></filter><marker orient="auto" overflow="visible" id="FilledArrow_Marker" viewBox="-1 -4 10 8" markerWidth="10" markerHeight="8" color="#000"><path d="M8 0L0-3v6z" fill="currentColor" stroke="currentColor"/></marker><marker orient="auto" overflow="visible" id="FilledArrow_Marker_2" viewBox="-9 -4 10 8" markerWidth="10" markerHeight="8" color="#000"><path d="M-8 0l8 3v-6z" fill="currentColor" stroke="currentColor"/></marker><filter id="Shadow_2" filterUnits="userSpaceOnUse"><feGaussianBlur in="SourceAlpha" result="blur" stdDeviation="1.303"/><feOffset in="blur" result="offset" dy="2"/><feFlood flood-color="#000" flood-opacity=".2" result="flood"/><feComposite in="flood" in2="offset" operator="in" result="color"/><feMerge><feMergeNode in="color"/><feMergeNode in="SourceGraphic"/></feMerge></filter></defs><g fill="none"><xl:use xl:href="#id7_Graphic" filter="url(#Shadow)"/><xl:use xl:href="#id6_Graphic" filter="url(#Shadow)"/><xl:use xl:href="#id13_Graphic" filter="url(#Shadow)"/><g id="id7_Graphic"><path d="M465 243.182v-42.546c0-2.935 11.913-5.318 26.59-5.318 14.68 0 26.592 2.383 26.592 5.318v42.546c0 2.935-11.913 5.318-26.591 5.318S465 246.117 465 243.182" fill="#fff"/><path d="M465 243.182v-42.546c0-2.935 11.913-5.318 26.59-5.318 14.68 0 26.592 2.383 26.592 5.318v42.546c0 2.935-11.913 5.318-26.591 5.318S465 246.117 465 243.182m0-42.546c0 2.936 11.913 5.319 26.59 5.319 14.68 0 26.592-2.383 26.592-5.319" stroke="#000" stroke-linecap="round" stroke-linejoin="round"/><text transform="translate(470 218.568)" fill="#000"><tspan font-size="10" font-weight="500" x="4.079" y="10" textLength="35.024">Storage</tspan></text></g><g id="id6_Graphic"><path d="M354.068 202.545l48.068 19.228L354.068 241 306 221.773z" fill="#fff"/><path d="M354.068 202.545l48.068 19.228L354.068 241 306 221.773z" stroke="#000" stroke-linecap="round" stroke-linejoin="round"/><text transform="translate(323.978 215.388)" fill="#000"><tspan font-size="10" font-weight="500" x="7.702" y="10" textLength="46.699">Beliefbase</tspan></text></g><path marker-end="url(#FilledArrow_Marker)" marker-start="url(#FilledArrow_Marker_2)" stroke="#000" stroke-linecap="round" stroke-linejoin="round" d="M256.173 221.735l39.927.03m115.936.029l43.064.094"/><g id="id13_Graphic"><path fill="#fff" d="M180 207h66.273v29.455H180z"/><path d="M180 207h66.273v29.455H180zm6.627 0v29.455m53.018 0V207" stroke="#000" stroke-linecap="round" stroke-linejoin="round"/><text transform="translate(191.627 215.727)" fill="#000"><tspan font-size="10" font-weight="500" x="10.76" y="10" textLength="6.67">V</tspan><tspan font-size="10" font-weight="500" x="17.254" y="10" textLength="15.005">iew</tspan></text></g><g filter="url(#Shadow_2)"><path d="M159 180h102a9 9 0 0 1 9 9v54a9 9 0 0 1-9 9H159a9 9 0 0 1-9-9v-54a9 9 0 0 1 9-9z" stroke="#000" stroke-linecap="round" stroke-linejoin="round"/><text transform="translate(155 185)" fill="#000"><tspan font-size="12" font-weight="500" x="39.32" y="11" textLength="31.359">Agent</tspan></text></g></g></svg>