<svg xmlns="http://www.w3.org/2000/svg" viewBox="0 0 32 32" id="svg3979"><path d="M16 31.625C7.385 31.625.375 24.615.375 16S7.385.375 16 .375 31.625 7.385 31.625 16 24.615 31.625 16 31.625z" fill="#FFF" id="path3973"/><path d="M16 .75C24.409.75 31.25 7.591 31.25 16S24.409 31.25 16 31.25.75 24.409.75 16 7.591.75 16 .75M16 0C7.163 0 0 7.163 0 16c0 8.836 7.163 16 16 16s16-7.164 16-16c0-8.837-7.163-16-16-16z" fill="#E5E5E5" id="path3975"/><g transform="translate(5.018 3.932)" id="Docker" fill="#333"><path d="M23.77 11.08a5.12 5.12 0 0 0-2.41-.77 2.7 2.7 0 0 0-.44 0 4.24 4.24 0 0 0-1.64-2.26.5.5 0 0 0-.64.07 4.06 4.06 0 0 0-.72 3.28.52.52 0 0 1-.13.41.45.45 0 0 1-.34.15H17V9.5a.5.5 0 0 0-.5-.5H14V3.5a.5.5 0 0 0-.5-.5h-3a.5.5 0 0 0-.5.5V6H4.5a.5.5 0 0 0-.5.5V9H1.5a.5.5 0 0 0-.5.5V12H.5a.5.5 0 0 0-.5.5C0 20.17 5.59 21 8 21a14.29 14.29 0 0 0 12.38-7.08 5.13 5.13 0 0 0 3.55-2.17.5.5 0 0 0-.16-.67zM16 12h-2v-2h2zM5 12v-2h2v2zm3 0v-2h2v2zm5-5v2h-2V7zm-2 5v-2h2v2zm0-8h2v2h-2zm-1 5H8V7h2zM5 7h2v2H5zm-3 3h2v2H2zm3 7a1 1 0 1 1 1-1 1 1 0 0 1-1 1z" id="path4755"/></g></svg>