<svg viewBox="0 0 64 64" xmlns="http://www.w3.org/2000/svg"><path d="M32.001 63.251c-17.23 0-31.25-14.02-31.25-31.25S14.771.751 32.001.751s31.25 14.02 31.25 31.25-14.02 31.25-31.25 31.25z" fill="#FFF"/><path d="M32 1.5c16.818 0 30.5 13.682 30.5 30.5S48.818 62.5 32 62.5 1.5 48.818 1.5 32 15.182 1.5 32 1.5M32 0C14.327 0 0 14.327 0 32c0 17.673 14.327 32 32 32s32-14.327 32-32C64 14.327 49.673 0 32 0z" fill="#E5E5E5"/><path d="M38.592 50.166h-9.684s.014-2.874 0-4.844c-6.629 1.428-8.479-3.633-8.479-3.633-1.21-2.423-2.423-3.633-2.423-3.633-2.423-1.438 0-1.21 0-1.21 2.423 0 3.633 2.423 3.633 2.423 2.126 3.609 5.908 3.028 7.266 2.423 0-1.21.53-3.042 1.21-3.633-5.29-.595-9.693-3.633-9.693-9.689s1.216-7.266 2.427-8.479c-.244-.597-1.259-2.805.037-6.056 0 0 2.38 0 4.803 3.633 1.2-1.2 4.844-1.21 6.056-1.21 1.208 0 4.854.01 6.054 1.21 2.423-3.633 4.809-3.633 4.809-3.633 1.296 3.251.282 5.459.037 6.056 1.21 1.21 2.423 2.423 2.423 8.479s-4.397 9.092-9.689 9.689c.682.591 1.21 2.675 1.21 3.633l.003 8.474z" fill="#333"/></svg>