<svg viewBox="0 0 32 32" xmlns="http://www.w3.org/2000/svg"><path d="M16 31.625C7.385 31.625.375 24.615.375 16S7.385.375 16 .375 31.625 7.385 31.625 16 24.615 31.625 16 31.625z" fill="#FFF"/><path d="M16 .75C24.409.75 31.25 7.591 31.25 16S24.409 31.25 16 31.25.75 24.409.75 16 7.591.75 16 .75M16 0C7.163 0 0 7.163 0 16c0 8.836 7.163 16 16 16s16-7.164 16-16c0-8.837-7.163-16-16-16z" fill="#E5E5E5"/><path d="M7.659 14.357s1.521-1.199 2.028-.6c.507.6 2.442 7.836 3.088 9.171.564 1.171 2.119 2.718 3.824 1.613 1.705-1.105 7.373-5.945 8.388-11.66 1.014-5.714-6.821-4.517-7.651.461 2.075-1.245 3.182.506 2.12 2.489-1.06 1.981-2.028 3.273-2.535 3.273-.506 0-.895-1.326-1.475-3.643-.599-2.395-.596-6.71-3.087-6.221-2.35.461-5.438 4.149-5.438 4.149l.738.968z" fill="#333"/></svg>